<svg xmlns="http://www.w3.org/2000/svg" width="25.462" height="25.339" viewBox="0 0 25.462 25.339">
  <path id="arrow_forward_FILL0_wght200_GRAD0_opsz24" d="M222.5-738.736H200.931a.9.9,0,0,1-.664-.267.9.9,0,0,1-.267-.664.9.9,0,0,1,.267-.664.9.9,0,0,1,.664-.267H222.5l-10.129-10.129a.924.924,0,0,1-.285-.641.9.9,0,0,1,.3-.677.961.961,0,0,1,.659-.3.9.9,0,0,1,.659.3l11.325,11.325a1.462,1.462,0,0,1,.342.5,1.524,1.524,0,0,1,.1.555,1.525,1.525,0,0,1-.1.555,1.462,1.462,0,0,1-.342.5L213.7-727.289a.932.932,0,0,1-.636.279.9.9,0,0,1-.682-.279.929.929,0,0,1-.308-.664.929.929,0,0,1,.308-.664Z" transform="translate(-200 752.348)" fill="#707070"/>
</svg>
