<svg xmlns="http://www.w3.org/2000/svg" width="367.579" height="50" viewBox="0 0 367.579 50">
  <g id="Group_1156" data-name="Group 1156" transform="translate(-139.785 -44.5)">
    <g id="Amazon_Web_Services_Logo" transform="translate(244.187 48.9)">
      <path id="Path_2" data-name="Path 2" d="M31.208,16.551a7.159,7.159,0,0,0,.26,2.106,12.666,12.666,0,0,0,.757,1.7,1.029,1.029,0,0,1,.166.544.937.937,0,0,1-.45.71l-1.491.994a1.135,1.135,0,0,1-.615.213,1.089,1.089,0,0,1-.71-.331,7.32,7.32,0,0,1-.852-1.112c-.237-.4-.473-.852-.734-1.4a8.741,8.741,0,0,1-6.957,3.265,6.483,6.483,0,0,1-4.732-1.7A6.079,6.079,0,0,1,14.1,17a6.091,6.091,0,0,1,2.153-4.874,8.608,8.608,0,0,1,5.8-1.846,18.735,18.735,0,0,1,2.508.189c.875.118,1.775.308,2.721.521V9.263a5.243,5.243,0,0,0-1.112-3.786,5.447,5.447,0,0,0-3.857-1.088,10.766,10.766,0,0,0-2.556.308,18.854,18.854,0,0,0-2.555.8,6.789,6.789,0,0,1-.828.308,1.451,1.451,0,0,1-.379.071c-.331,0-.5-.237-.5-.734V3.987a1.5,1.5,0,0,1,.166-.828,1.772,1.772,0,0,1,.663-.5A13.623,13.623,0,0,1,19.306,1.6,14.346,14.346,0,0,1,23,1.147c2.816,0,4.874.639,6.2,1.917,1.3,1.278,1.964,3.218,1.964,5.821v7.666Zm-9.607,3.6a7.669,7.669,0,0,0,2.437-.426,5.273,5.273,0,0,0,2.248-1.514,3.756,3.756,0,0,0,.8-1.514,8.495,8.495,0,0,0,.237-2.059v-.994a19.761,19.761,0,0,0-2.177-.4,17.83,17.83,0,0,0-2.224-.142,5.455,5.455,0,0,0-3.526.946,3.3,3.3,0,0,0-1.159,2.721,3.053,3.053,0,0,0,3.36,3.384Zm19,2.556a1.321,1.321,0,0,1-.9-.237,1.929,1.929,0,0,1-.5-.923L33.645,3.253a4.145,4.145,0,0,1-.213-.946A.519.519,0,0,1,34,1.715h2.319a1.312,1.312,0,0,1,.923.237,1.936,1.936,0,0,1,.473.923L41.69,18.539,45.381,2.875a1.66,1.66,0,0,1,.45-.923,1.628,1.628,0,0,1,.946-.237H48.67a1.424,1.424,0,0,1,.946.237,1.594,1.594,0,0,1,.45.923L53.8,18.728,57.9,2.875a2.029,2.029,0,0,1,.473-.923,1.544,1.544,0,0,1,.923-.237h2.2a.526.526,0,0,1,.592.592,2.36,2.36,0,0,1-.047.379,3.367,3.367,0,0,1-.166.592l-5.7,18.291a1.814,1.814,0,0,1-.5.923,1.514,1.514,0,0,1-.9.237H52.74a1.424,1.424,0,0,1-.946-.237,1.677,1.677,0,0,1-.45-.946L47.676,6.282,44.032,21.52a1.847,1.847,0,0,1-.45.946,1.467,1.467,0,0,1-.946.237Zm30.406.639a15.658,15.658,0,0,1-3.644-.426,10.764,10.764,0,0,1-2.721-.946,1.7,1.7,0,0,1-.734-.663,1.67,1.67,0,0,1-.142-.663V19.438c0-.5.189-.734.544-.734a1.34,1.34,0,0,1,.426.071c.142.047.355.142.592.237a12.871,12.871,0,0,0,2.6.828,14.21,14.21,0,0,0,2.816.284,6.384,6.384,0,0,0,3.455-.781,2.548,2.548,0,0,0,1.23-2.248,2.3,2.3,0,0,0-.639-1.656,5.937,5.937,0,0,0-2.39-1.23l-3.431-1.065a7.217,7.217,0,0,1-3.786-2.414A5.638,5.638,0,0,1,64,7.3a5.266,5.266,0,0,1,.639-2.626,6.084,6.084,0,0,1,1.7-1.94A7.51,7.51,0,0,1,68.807,1.5a10.313,10.313,0,0,1,2.981-.4,11.879,11.879,0,0,1,1.585.095c.544.071,1.041.166,1.538.26.473.118.923.237,1.349.379a5.164,5.164,0,0,1,.994.426,2.046,2.046,0,0,1,.71.592,1.275,1.275,0,0,1,.213.781V4.744c0,.5-.189.757-.544.757a2.461,2.461,0,0,1-.9-.284,10.825,10.825,0,0,0-4.543-.923,6.107,6.107,0,0,0-3.147.663,2.285,2.285,0,0,0-1.112,2.106,2.234,2.234,0,0,0,.71,1.68,7.068,7.068,0,0,0,2.6,1.3l3.36,1.065a7.2,7.2,0,0,1,3.668,2.272,5.354,5.354,0,0,1,1.088,3.313,6.083,6.083,0,0,1-.615,2.745,6.364,6.364,0,0,1-1.727,2.082,7.627,7.627,0,0,1-2.626,1.325A11.252,11.252,0,0,1,71.007,23.342Z" transform="translate(-9.49)" fill="#fff"/>
      <g id="Group_1118" data-name="Group 1118" transform="translate(1.668 27.623)">
        <path id="Path_3" data-name="Path 3" d="M65.989,124.954c-7.785,5.75-19.1,8.8-28.82,8.8A52.139,52.139,0,0,1,1.983,120.34c-.734-.663-.071-1.562.8-1.041A70.959,70.959,0,0,0,38,128.645a70.261,70.261,0,0,0,26.856-5.49C66.155,122.564,67.267,124.007,65.989,124.954Z" transform="translate(-1.668 -117.735)" fill="#fff" fill-rule="evenodd"/>
        <path id="Path_4" data-name="Path 4" d="M255.739,116.72c-.994-1.278-6.578-.615-9.11-.308-.757.095-.876-.568-.189-1.065,4.448-3.123,11.76-2.224,12.612-1.183.852,1.065-.237,8.376-4.4,11.878-.639.544-1.254.26-.97-.45C254.626,123.25,256.732,117.974,255.739,116.72Z" transform="translate(-188.176 -113.192)" fill="#fff" fill-rule="evenodd"/>
      </g>
    </g>
    <path id="Arm-logo-blue-pms313" d="M536.883,360.523h4.782v1.9a6.335,6.335,0,0,1,5.08-2.441A6.034,6.034,0,0,1,552.067,363a7.265,7.265,0,0,1,6.1-3.017,6.583,6.583,0,0,1,5.859,3.222,10.141,10.141,0,0,1,1.074,5.174v12.692h-4.785V369.749a9.489,9.489,0,0,0-.44-3.659,2.719,2.719,0,0,0-2.733-1.81,3.536,3.536,0,0,0-2.833,1.508c-.83,1.171-.926,2.929-.926,4.685v10.6H548.6V369.749a9.488,9.488,0,0,0-.44-3.659,2.719,2.719,0,0,0-2.733-1.81,3.533,3.533,0,0,0-2.83,1.508c-.83,1.171-.929,2.929-.929,4.685v10.6h-4.782Zm-16.562,0h4.785v1.855a8.28,8.28,0,0,1,2-1.707,5.523,5.523,0,0,1,2.929-.685,7.1,7.1,0,0,1,3.759.977l-1.964,4.344a4.333,4.333,0,0,0-2.441-.733,3.72,3.72,0,0,0-2.978,1.122c-1.318,1.415-1.318,3.367-1.318,4.733v10.643h-4.77Zm-21.706,10.348c0,3.563,2.245,6.54,5.711,6.54,3.017,0,5.807-2.2,5.807-6.492,0-4.492-2.781-6.637-5.807-6.637-3.466,0-5.711,2.929-5.711,6.589m11.226-10.348h4.794v20.55h-4.791v-2.148a7.892,7.892,0,0,1-6.148,2.782c-6.335,0-9.955-5.27-9.955-10.933,0-6.688,4.589-10.788,10.007-10.788a7.491,7.491,0,0,1,6.1,2.929Z" transform="translate(-353.955 -301.624)" fill="#fff"/>
    <g id="Cadence-Logo" transform="translate(351.925 50)">
      <path id="Path_5" data-name="Path 5" d="M-3.081-37.432H8.81V-40.7H-3.081Z" transform="translate(24.386 40.704)" fill="#fff"/>
      <g id="Group_1119" data-name="Group 1119" transform="translate(0 8.28)">
        <path id="Path_6" data-name="Path 6" d="M7.653,13.725a7.236,7.236,0,0,1-3.285.676C-.5,14.4-3.739,10.8-3.739,4.05c0-6.144,3.4-10.756,8.835-10.756a5.15,5.15,0,0,1,2.557.6v3.569A7.429,7.429,0,0,0,5.185-3C2.256-3,.747.187.747,3.961c0,4.2,1.7,6.75,4.441,6.75a6.033,6.033,0,0,0,2.464-.487v3.5" transform="translate(3.739 6.706)" fill="#fff"/>
      </g>
      <g id="Group_1120" data-name="Group 1120" transform="translate(19.548 8.153)">
        <path id="Path_7" data-name="Path 7" d="M6.19,11.846l0-7.234c-1.749.023-4.923.507-4.923,4.077,0,2.318,1.235,3.155,2.223,3.155Zm4.429-1.635a35.794,35.794,0,0,0,.316,4.98h-8.8c-2.941,0-5.16-2.441-5.16-6.038,0-5.273,4.456-7.5,9.1-7.541V1.25c0-2.138-.837-3.64-3.066-3.64A8.445,8.445,0,0,0-1.247-1.252V-4.321A9.562,9.562,0,0,1,3.985-5.788c5.282,0,6.634,3.433,6.634,7.8v8.2" transform="translate(3.025 5.788)" fill="#fff"/>
      </g>
      <g id="Group_1121" data-name="Group 1121" transform="translate(42.893 2.093)">
        <path id="Path_8" data-name="Path 8" d="M6.773,15.9H4.153c-1.886,0-2.978-2.846-2.978-6.943,0-3.669.814-6.906,3.089-6.906,1.328,0,2.25,1.46,2.443,3.108a8.264,8.264,0,0,1,.066,1.263Zm4.481-1.608L11.244-7.767H6.773V.466H6.687A3.729,3.729,0,0,0,3.1-1.762c-3.314,0-6.406,3.455-6.406,10.655,0,6.181,2.227,10.366,6.2,10.366l8.683.007a36.062,36.062,0,0,1-.316-4.978" transform="translate(3.309 7.767)" fill="#fff"/>
      </g>
      <g id="Group_1122" data-name="Group 1122" transform="translate(67.137 8.261)">
        <path id="Path_9" data-name="Path 9" d="M6.688,5.777C6.721,2.484,5.642.529,4.047.529c-1.954,0-2.834,2.843-2.923,5.248ZM1.1,8.978c.048,4.586,2.177,5.831,4.572,5.831a11.242,11.242,0,0,0,4-.728v3.235a11.419,11.419,0,0,1-4.814.965c-5.289,0-8.128-3.836-8.128-10.187,0-6.786,3.253-10.917,7.634-10.917,4.315,0,6.488,3.9,6.488,9.4a18.249,18.249,0,0,1-.118,2.393L1.1,8.978" transform="translate(3.268 2.822)" fill="#fff"/>
      </g>
      <g id="Group_1123" data-name="Group 1123" transform="translate(90.783 8.46)">
        <path id="Path_10" data-name="Path 10" d="M3.144,2.43V19.5h-4.5V4.762c0-2.318-.116-4.133-.184-5.949H7.329c3.417,0,5.453,2.487,5.453,7.245V19.5h-4.5V6.486c0-2.05-.435-4.052-2.393-4.052l-2.748,0" transform="translate(1.536 1.187)" fill="#fff"/>
      </g>
      <g id="Group_1124" data-name="Group 1124" transform="translate(114.656 8.28)">
        <path id="Path_11" data-name="Path 11" d="M7.655,13.725A7.242,7.242,0,0,1,4.37,14.4C-.5,14.4-3.74,10.8-3.74,4.05c0-6.144,3.4-10.756,8.836-10.756a5.158,5.158,0,0,1,2.559.6v3.569A7.451,7.451,0,0,0,5.185-3C2.257-3,.747.187.747,3.961c0,4.2,1.693,6.75,4.443,6.75a6.033,6.033,0,0,0,2.464-.487v3.5" transform="translate(3.74 6.706)" fill="#fff"/>
      </g>
      <g id="Group_1125" data-name="Group 1125" transform="translate(134.027 8.261)">
        <path id="Path_12" data-name="Path 12" d="M2.951,5.777C3.042,3.371,3.922.529,5.872.529c1.6,0,2.678,1.956,2.643,5.248Zm9.729.8c0-5.5-2.172-9.4-6.486-9.4-4.379,0-7.635,4.131-7.635,10.917,0,6.351,2.839,10.187,8.128,10.187a11.41,11.41,0,0,0,4.816-.965V14.081a11.258,11.258,0,0,1-4,.728c-2.4,0-4.522-1.246-4.57-5.831l9.63-.009a18.329,18.329,0,0,0,.116-2.393" transform="translate(1.442 2.822)" fill="#fff"/>
      </g>
      <g id="Group_1126" data-name="Group 1126" transform="translate(150.041 0.865)">
        <path id="Path_13" data-name="Path 13" d="M1.812,0a2.914,2.914,0,0,1,2.7,3.083,2.913,2.913,0,0,1-2.7,3.08,2.909,2.909,0,0,1-2.7-3.08A2.911,2.911,0,0,1,1.812,0Zm.009,5.7A2.384,2.384,0,0,0,4,3.083,2.383,2.383,0,0,0,1.821.462,2.386,2.386,0,0,0-.37,3.083,2.386,2.386,0,0,0,1.821,5.7ZM.779,1.272H1.993c.724,0,1.085.332,1.085,1.015,0,.582-.323,1-.819,1l.9,1.6H2.614l-.885-1.6H1.295v1.6H.779Zm.516,1.552h.612c.4,0,.653-.093.653-.562,0-.41-.321-.53-.653-.53H1.295V2.825" transform="translate(0.886)" fill="#fff"/>
      </g>
    </g>
    <line id="Line_1" data-name="Line 1" y2="50" transform="translate(228.5 44.5)" fill="none" stroke="#fff" stroke-width="1"/>
    <line id="Line_2" data-name="Line 2" y2="50" transform="translate(334.57 44.5)" fill="none" stroke="#fff" stroke-width="1"/>
  </g>
</svg>
