<svg xmlns="http://www.w3.org/2000/svg" width="24" height="24" viewBox="0 0 24 24">
  <path id="check_circle_FILL0_wght200_GRAD0_opsz24" d="M130.082-824.677l-3.328-3.328a.672.672,0,0,0-.459-.2.623.623,0,0,0-.485.2.654.654,0,0,0-.213.472.655.655,0,0,0,.213.472l3.518,3.518a1.033,1.033,0,0,0,.754.323,1.033,1.033,0,0,0,.754-.323l7.3-7.3a.671.671,0,0,0,.2-.459.623.623,0,0,0-.2-.485.655.655,0,0,0-.472-.213.655.655,0,0,0-.472.213ZM132-816a11.7,11.7,0,0,1-4.68-.945,12.126,12.126,0,0,1-3.812-2.564,12.113,12.113,0,0,1-2.566-3.809A11.671,11.671,0,0,1,120-828a11.7,11.7,0,0,1,.945-4.68,12.126,12.126,0,0,1,2.564-3.812,12.114,12.114,0,0,1,3.809-2.566A11.671,11.671,0,0,1,132-840a11.7,11.7,0,0,1,4.68.945,12.127,12.127,0,0,1,3.812,2.564,12.113,12.113,0,0,1,2.566,3.809A11.672,11.672,0,0,1,144-828a11.7,11.7,0,0,1-.945,4.68,12.126,12.126,0,0,1-2.564,3.812,12.114,12.114,0,0,1-3.809,2.566A11.671,11.671,0,0,1,132-816Zm0-1.333a10.3,10.3,0,0,0,7.567-3.1,10.3,10.3,0,0,0,3.1-7.567,10.3,10.3,0,0,0-3.1-7.567,10.3,10.3,0,0,0-7.567-3.1,10.3,10.3,0,0,0-7.567,3.1,10.3,10.3,0,0,0-3.1,7.567,10.3,10.3,0,0,0,3.1,7.567A10.3,10.3,0,0,0,132-817.333ZM132-828Z" transform="translate(-120 840)" fill="#797979"/>
</svg>
